<svg width="98" height="11" viewBox="0 0 98 11" fill="none" xmlns="http://www.w3.org/2000/svg">
<path d="M6.11693e-06 10.6021V8.85605L7.99201 1.74605H6.11693e-06V0.0180508H11.178V1.74605L3.02401 8.87405H11.088L11.808 10.4041C11.808 10.4521 11.646 10.5001 11.322 10.5481C10.998 10.5841 10.44 10.6021 9.64801 10.6021H6.11693e-06ZM11.3871 10.6021L16.6611 0.0180508H20.2071L25.4631 10.6021H22.6911L21.6291 8.31605H15.1851L14.0151 10.6021H11.3871ZM15.8331 6.55205H20.9631L18.4971 1.63805H18.3171L15.8331 6.55205ZM26.9072 10.6021V0.0180508H29.2832V4.41005H36.3392V0.0180508H38.7152V10.6021H36.3392V6.13805H29.2832V10.6021H26.9072ZM53.1045 10.7821C52.6245 10.7821 52.1505 10.7101 51.6825 10.5661C51.2265 10.4101 50.7045 10.0381 50.1165 9.45005L48.8205 8.15405C48.2925 7.61405 47.7105 7.21805 47.0745 6.96605C46.4505 6.71405 45.6645 6.58805 44.7165 6.58805H44.1585V10.6021H41.7825V1.45805L41.6025 4.99487e-05H49.5765C50.3445 4.99487e-05 50.9445 0.10205 51.3765 0.30605C51.8205 0.510051 52.1445 0.780051 52.3485 1.11605C52.5645 1.44005 52.7025 1.78805 52.7625 2.16005C52.8225 2.53205 52.8525 2.88605 52.8525 3.22205V3.56405C52.8525 3.82805 52.8165 4.12205 52.7445 4.44605C52.6725 4.77005 52.5345 5.08805 52.3305 5.40005C52.1265 5.71205 51.8325 5.97605 51.4485 6.19205C51.0765 6.40805 50.5845 6.53405 49.9725 6.57005C50.1285 6.65405 50.3265 6.78605 50.5665 6.96605C50.8065 7.13405 51.0525 7.32005 51.3045 7.52405C51.5685 7.72805 51.8085 7.91405 52.0245 8.08205C52.2405 8.25005 52.4085 8.37005 52.5285 8.44205C52.9605 8.69405 53.3445 8.86805 53.6805 8.96405C54.0165 9.06005 54.2925 9.11405 54.5085 9.12605C54.7245 9.13805 54.8505 9.14405 54.8865 9.14405L54.5265 10.6021C54.4185 10.6381 54.2385 10.6741 53.9865 10.7101C53.7345 10.7581 53.4405 10.7821 53.1045 10.7821ZM46.8585 4.95005C47.3145 4.95005 47.7225 4.94405 48.0825 4.93205C48.4425 4.90805 48.7665 4.88405 49.0545 4.86005C49.5825 4.80005 49.9485 4.65605 50.1525 4.42805C50.3685 4.18805 50.4765 3.88205 50.4765 3.51005V3.09605C50.4765 2.71205 50.3745 2.38805 50.1705 2.12405C49.9665 1.86005 49.6005 1.72805 49.0725 1.72805H44.1585V4.86005C44.6865 4.89605 45.1725 4.92005 45.6165 4.93205C46.0605 4.94405 46.4745 4.95005 46.8585 4.95005ZM55.0688 10.6021L60.3428 0.0180508H63.8888L69.1448 10.6021H66.3728L65.3108 8.31605H58.8668L57.6968 10.6021H55.0688ZM59.5148 6.55205H64.6448L62.1788 1.63805H61.9988L59.5148 6.55205ZM70.7688 10.6021V1.45805L70.5888 0.0180508H78.9408C79.9128 0.0180508 80.6568 0.138051 81.1728 0.37805C81.7008 0.61805 82.0668 0.97805 82.2708 1.45805C82.4748 1.92605 82.5768 2.51405 82.5768 3.22205V7.38005C82.5768 8.10005 82.4748 8.70005 82.2708 9.18005C82.0788 9.64805 81.7188 10.0021 81.1908 10.2421C80.6748 10.4821 79.9248 10.6021 78.9408 10.6021H70.7688ZM73.1448 8.87405H78.7968C79.7208 8.87405 80.1888 8.44805 80.2008 7.59605V3.00605C80.2008 2.65805 80.0988 2.36405 79.8948 2.12405C79.6908 1.87205 79.3248 1.74605 78.7968 1.74605H73.1448V8.87405ZM83.2992 10.6021L88.5732 0.0180508H92.1192L97.3752 10.6021H94.6032L93.5412 8.31605H87.0972L85.9272 10.6021H83.2992ZM87.7452 6.55205H92.8752L90.4092 1.63805H90.2292L87.7452 6.55205Z" fill="black"/>
</svg>
