<svg width="60" height="60" viewBox="0 0 60 60" fill="none" xmlns="http://www.w3.org/2000/svg">
<path d="M60 28.1358C60 27.8962 59.88 27.5967 59.64 27.4769L54.12 24.4223L59.64 21.3676C59.88 21.2478 60 21.0082 60 20.7088C60 20.4093 59.88 20.1697 59.64 20.0499L54.66 17.2947L59.64 14.5396C59.88 14.4198 60 14.1203 60 13.8807C60 13.5812 59.82 13.3417 59.58 13.2219L30.3 0.0449214C30.12 -0.0149738 29.88 -0.0149738 29.7 0.0449214L0.42 13.2219C0.18 13.4015 0 13.6411 0 13.9406C0 14.2401 0.12 14.4797 0.36 14.5995L5.34 17.3546L0.36 20.1098C0.12 20.2296 0 20.4692 0 20.7687C0 21.0681 0.12 21.3077 0.36 21.4275L5.88 24.4822L0.36 27.5368C0.12 27.6566 0 27.8962 0 28.1358C0 28.3753 0.12 28.6748 0.36 28.7946L5.88 31.8493L0.36 34.9039C0.12 35.0237 0 35.2633 0 35.5628C0 35.8622 0.12 36.1018 0.36 36.2216L5.88 39.2763L0.36 42.3309C0.12 42.3908 0 42.6903 0 42.9299C0 43.1695 0.12 43.4689 0.36 43.5887L29.64 59.8802C29.76 59.9401 29.88 60 30 60C30.12 60 30.24 59.9401 30.36 59.8802L59.64 43.5887C59.88 43.4689 60 43.2294 60 42.9299C60 42.6304 59.88 42.3908 59.64 42.271L54.12 39.2164L59.64 36.1617C59.88 36.0419 60 35.8023 60 35.5029C60 35.2034 59.88 34.9638 59.64 34.844L54.12 31.7894L59.64 28.7347C59.88 28.6748 60 28.4352 60 28.1358ZM30 1.6022L57.66 14.0604L30 29.3936L2.34 14.0005L30 1.6022ZM6.84 18.1932L29.64 30.8909C29.76 30.9508 29.88 31.0107 30 31.0107C30.12 31.0107 30.24 30.9508 30.36 30.8909L53.16 18.1932L57.78 20.7687L30 36.2216L2.22 20.7687L6.84 18.1932ZM52.8 40.1747L57.78 42.9299L30 58.3828L2.22 42.9299L7.2 40.1747C7.26 40.1747 7.26 40.1148 7.32 40.0549L29.64 52.4532C29.76 52.5131 29.88 52.573 30 52.573C30.12 52.573 30.24 52.5131 30.36 52.4532L52.68 40.0549C52.68 40.1148 52.74 40.1148 52.8 40.1747ZM52.8 32.7477L57.78 35.5029L30 50.9558L2.22 35.5628L7.2 32.8076C7.26 32.8076 7.26 32.7477 7.32 32.6878L29.64 45.0861C29.76 45.146 29.88 45.2059 30 45.2059C30.12 45.2059 30.24 45.146 30.36 45.0861L52.68 32.6878C52.68 32.6878 52.74 32.7477 52.8 32.7477ZM30 43.5887L2.22 28.1358L7.2 25.3806C7.26 25.3806 7.26 25.3207 7.32 25.2608L29.64 37.6591C29.76 37.719 29.88 37.7789 30 37.7789C30.12 37.7789 30.24 37.719 30.36 37.6591L52.68 25.2608C52.74 25.3207 52.74 25.3207 52.8 25.3806L57.78 28.1358L30 43.5887Z" fill="black"/>
</svg>
