<svg width="60" height="60" viewBox="0 0 60 60" fill="none" xmlns="http://www.w3.org/2000/svg">
<path d="M11.53 19.0798C13.3315 19.0798 14.2323 16.1398 14.2323 13.1998C14.2323 10.2598 13.2715 7.31982 11.53 7.31982C9.78847 7.31982 8.82764 10.2598 8.82764 13.1998C8.82764 16.1398 9.78847 19.0798 11.53 19.0798ZM11.53 8.81982C11.8302 8.81982 12.7911 10.3198 12.7911 13.1998C12.7911 16.0798 11.8903 17.5798 11.53 17.5798C11.1697 17.5798 10.2689 16.0798 10.2689 13.1998C10.2689 10.3198 11.2297 8.81982 11.53 8.81982Z" fill="black"/>
<path d="M10.9895 27.7202C14.6527 27.7202 17.5352 22.0202 17.5352 14.7002C17.5352 7.38018 14.6527 1.68018 10.9895 1.68018C7.32636 1.68018 4.50391 7.38018 4.50391 14.7002C4.50391 22.0202 7.32636 27.7202 10.9895 27.7202ZM10.9895 3.12018C13.4517 3.12018 16.0339 7.74018 16.0339 14.6402C16.0339 21.5402 13.3916 26.1602 10.9895 26.1602C8.58745 26.1602 5.94516 21.6002 5.94516 14.7002C5.94516 7.80018 8.58745 3.12018 10.9895 3.12018Z" fill="black"/>
<path d="M28.2245 0.6C28.1645 0.24 27.8642 0 27.5039 0H23.6005H16.5143H3.90339H0.720626C0.300261 0 0 0.3 0 0.72V42.66V59.28C0 59.7 0.300261 60 0.720626 60H22.7598C23.1801 60 23.4804 59.7 23.4804 59.28C23.4804 52.8 24.9817 50.88 26.7232 48.6C29.0652 45.54 31.7676 42.12 31.7676 27.78C31.7676 22.44 29.1853 6 28.2245 0.6ZM16.094 1.44C17.9556 5.28 18.9765 10.68 18.9765 16.26C18.9765 27.18 14.953 36.36 10.2089 36.36C5.46475 36.36 1.44125 27.18 1.44125 16.32C1.44125 10.68 2.52219 5.34 4.38381 1.5H16.094V1.44ZM1.44125 1.44H2.7624C2.28198 2.58 1.86162 3.84 1.44125 5.16V1.44ZM10.2089 37.92C15.9739 37.92 20.4177 28.44 20.4177 16.32C20.4177 10.8 19.3968 5.46 17.6553 1.5H23.06C24.5613 6.66 25.282 12.6 25.282 18.72C25.282 36.48 18.8564 50.88 10.9895 50.88C7.50652 50.88 4.08355 47.94 1.44125 42.54V27.54C3.24282 33.78 6.48563 37.92 10.2089 37.92ZM25.5822 47.7C23.8407 49.98 22.1592 52.08 22.0391 58.5H1.44125V45.48C4.20365 49.86 7.50652 52.26 10.9895 52.26C19.8172 52.26 26.7833 37.5 26.7833 18.66C26.7833 12.54 26.0026 6.66 24.5613 1.44H26.9034C27.8642 7.14 30.2663 22.74 30.2663 27.78C30.3263 41.64 27.8041 44.88 25.5822 47.7Z" fill="black"/>
<path d="M59.3317 0H54.7677H48.4622H36.632C36.3317 0 36.0915 0.18 35.9714 0.42C35.8513 0.66 35.8513 1.02 36.0315 1.2C39.8147 5.64 38.974 16.02 38.4335 22.86C38.2534 24.84 38.1333 26.52 38.1333 27.72C38.1333 42.12 41.6163 45.6 44.679 48.66C46.9009 50.88 48.8226 52.8 48.8226 59.22C48.8226 59.64 49.1228 59.94 49.5432 59.94H59.2716C59.692 59.94 59.9923 59.64 59.9923 59.22V50.22V36.9V20.52V5.4V0.72C60.0523 0.3 59.7521 0 59.3317 0ZM58.6111 19.5C56.8695 18.66 55.5484 15.96 55.5484 12.96C55.5484 9.9 56.8095 7.26 58.6111 6.42V19.5ZM58.6111 1.44V4.8C55.9688 5.64 54.0471 9 54.0471 12.96C54.0471 16.92 55.9688 20.22 58.551 21.06V35.76C55.0079 33.48 52.4857 25.5 52.4857 16.32C52.4857 10.68 53.4466 5.34 55.1881 1.5H58.6111V1.44ZM53.6267 1.44C52.0053 5.46 51.0445 10.74 51.0445 16.32C51.0445 26.7 54.1672 35.4 58.551 37.44V49.08C51.1045 44.58 46.0001 32.34 46.0001 18.72C46.0001 12.6 47.021 6.66 48.9427 1.5H53.6267V1.44ZM50.3239 58.56C50.1437 52.08 48.0419 49.92 45.7599 47.64C42.8774 44.82 39.6346 41.58 39.6346 27.78C39.6346 26.64 39.7547 24.96 39.9348 23.04C40.4753 16.44 41.256 6.78 38.0732 1.5H47.4414C45.5797 6.72 44.6189 12.6 44.6189 18.72C44.6189 33.3 50.3839 46.32 58.6111 50.76V58.62H50.3239V58.56Z" fill="black"/>
<path d="M35.3704 47.52C31.7072 47.52 28.8848 52.32 28.8848 58.44C28.8848 58.74 28.8848 59.04 28.8848 59.28C28.8848 59.7 29.2451 60 29.6054 60H41.1354C41.5558 60 41.856 59.7 41.856 59.28C41.856 58.98 41.856 58.74 41.856 58.44C41.9161 52.32 39.0336 47.52 35.3704 47.52ZM33.809 55.26C33.809 53.4 34.6498 51.96 35.3704 51.96C36.091 51.96 36.9318 53.34 36.9318 55.26C36.9318 57.12 36.091 58.56 35.3704 58.56C34.6498 58.56 33.809 57.12 33.809 55.26ZM40.4148 58.56H37.5323C38.0727 57.72 38.373 56.58 38.373 55.26C38.373 52.62 37.0519 50.52 35.3704 50.52C33.6889 50.52 32.3678 52.62 32.3678 55.26C32.3678 56.58 32.6681 57.72 33.2085 58.56H30.326C30.326 58.5 30.326 58.5 30.326 58.44C30.326 53.34 32.6681 49.02 35.3704 49.02C38.0727 49.02 40.4148 53.34 40.4148 58.44C40.4148 58.5 40.4148 58.5 40.4148 58.56Z" fill="black"/>
</svg>
