<svg width="60" height="60" viewBox="0 0 60 60" fill="none" xmlns="http://www.w3.org/2000/svg">
<path d="M60 6.66V0.78C60 0.72 60 0.72 59.94 0.66C59.94 0.6 59.94 0.48 59.88 0.42C59.88 0.42 59.82 0.42 59.82 0.36C59.82 0.3 59.76 0.3 59.7 0.24C59.64 0.18 59.58 0.12 59.46 0.06L59.4 0C59.34 0 59.34 0 59.28 0C59.34 0.06 59.34 0.06 59.28 0.06H37.32H19.74C19.5 0.06 19.26 0.18 19.14 0.36L0.12 28.2V28.26C0.12 28.32 0.06 28.32 0.06 28.38C0.06 28.44 0.06 28.5 0.06 28.5V28.56V34.44C0.06 34.86 0.36 35.16 0.78 35.16H12.6L0.12 53.04V53.1C0.06 53.16 0.06 53.28 0 53.34V53.4V59.28C0 59.7 0.3 60 0.72 60H22.68C22.8 60 22.92 59.94 22.98 59.94L23.04 59.88C23.1 59.82 23.16 59.76 23.22 59.7C23.22 59.7 23.22 59.7 23.28 59.64L32.34 46.62V54.42C32.34 54.84 32.64 55.14 33.06 55.14H43.32C43.44 55.14 43.56 55.08 43.62 55.08L43.68 55.02C43.74 54.96 43.8 54.9 43.86 54.84C43.86 54.84 43.86 54.84 43.92 54.78L59.88 31.86C59.94 31.74 60 31.62 60 31.44V21.42C60 21.36 60 21.36 59.94 21.3C59.94 21.24 59.94 21.12 59.88 21.06C59.88 21.06 59.82 21.06 59.82 21C59.82 20.94 59.76 20.94 59.7 20.88C59.64 20.82 59.58 20.76 59.46 20.7L59.4 20.64C59.34 20.64 59.34 20.64 59.28 20.64C59.22 20.64 59.22 20.58 59.16 20.58H50.4L59.88 6.96C59.94 6.96 60 6.78 60 6.66ZM20.16 1.5H35.94L17.64 27.84H2.1L20.16 1.5ZM1.44 33.72V29.34H16.56L13.5 33.72H1.44ZM18.48 29.22C18.66 29.1 18.78 28.98 18.78 28.74L37.68 1.5H57.84L22.32 52.74H2.16L18.48 29.22ZM1.44 54.18H21.9V58.56H1.44V54.18ZM33.78 45H42.6V53.76H33.78V45ZM44.04 52.2V44.76L44.1 44.7L58.5 23.76V31.44L44.04 52.2ZM49.38 22.14H57.84L42.9 43.56H34.5L48.6 23.28L49.38 22.14ZM58.56 6.42L47.46 22.38L32.46 43.86V43.92C32.4 43.98 32.4 44.04 32.4 44.1L23.4 57V53.7L42.54 26.1L58.56 3.12V6.42Z" fill="black"/>
</svg>
