<svg width="58" height="60" viewBox="0 0 58 60" fill="none" xmlns="http://www.w3.org/2000/svg">
<path d="M1.41438 21.0516C2.19552 21.0516 2.82875 20.4128 2.82875 19.6248C2.82875 18.8368 2.19552 18.198 1.41438 18.198C0.633238 18.198 0 18.8368 0 19.6248C0 20.4128 0.633238 21.0516 1.41438 21.0516Z" fill="black"/>
<path d="M56.5858 21.0516C57.3669 21.0516 58.0001 20.4128 58.0001 19.6248C58.0001 18.8368 57.3669 18.198 56.5858 18.198C55.8046 18.198 55.1714 18.8368 55.1714 19.6248C55.1714 20.4128 55.8046 21.0516 56.5858 21.0516Z" fill="black"/>
<path d="M9.67219 3.03355C10.2245 2.47635 10.2245 1.57296 9.67219 1.01577C9.11985 0.458579 8.22432 0.458579 7.67198 1.01577C7.11964 1.57296 7.11964 2.47635 7.67198 3.03355C8.22432 3.59074 9.11985 3.59074 9.67219 3.03355Z" fill="black"/>
<path d="M50.3275 38.2323C50.8798 37.6751 50.8798 36.7717 50.3275 36.2145C49.7751 35.6573 48.8796 35.6573 48.3273 36.2145C47.7749 36.7717 47.7749 37.6751 48.3273 38.2323C48.8796 38.7895 49.7751 38.7895 50.3275 38.2323Z" fill="black"/>
<path d="M9.6595 38.2391C10.2118 37.6819 10.2118 36.7785 9.6595 36.2213C9.10715 35.6641 8.21163 35.6641 7.65929 36.2213C7.10694 36.7785 7.10694 37.6819 7.65929 38.2391C8.21163 38.7963 9.10715 38.7963 9.6595 38.2391Z" fill="black"/>
<path d="M50.3392 3.02671C50.8915 2.46952 50.8915 1.56613 50.3392 1.00893C49.7868 0.451741 48.8913 0.451742 48.339 1.00893C47.7866 1.56613 47.7866 2.46952 48.339 3.02671C48.8913 3.5839 49.7868 3.5839 50.3392 3.02671Z" fill="black"/>
<path d="M3.91104 30.5715C4.63156 30.2671 4.97104 29.4311 4.66929 28.7042C4.36753 27.9774 3.53881 27.6349 2.81829 27.9393C2.09777 28.2437 1.75829 29.0797 2.06005 29.8066C2.3618 30.5334 3.19052 30.8759 3.91104 30.5715Z" fill="black"/>
<path d="M55.185 11.3132C55.9055 11.0088 56.245 10.1728 55.9432 9.44591C55.6415 8.71906 54.8127 8.3766 54.0922 8.68101C53.3717 8.98541 53.0322 9.82141 53.334 10.5483C53.6357 11.2751 54.4644 11.6176 55.185 11.3132Z" fill="black"/>
<path d="M4.58346 10.7004C4.87952 9.97115 4.53351 9.1379 3.81065 8.83925C3.08778 8.5406 2.26179 8.88964 1.96574 9.61885C1.66968 10.3481 2.01569 11.1813 2.73855 11.48C3.46142 11.7786 4.28741 11.4296 4.58346 10.7004Z" fill="black"/>
<path d="M56.0362 29.6298C56.3324 28.9006 55.9864 28.0673 55.2636 27.7686C54.5407 27.4699 53.7146 27.8188 53.4185 28.5481C53.1224 29.2773 53.4683 30.1106 54.1912 30.4093C54.9141 30.708 55.7401 30.3591 56.0362 29.6298Z" fill="black"/>
<path d="M29.0004 0.419678C18.2726 0.419678 9.60791 9.21993 9.60791 19.9824C9.60791 26.1664 12.5551 31.9936 17.4474 35.6802L19.3336 41.2101C18.5084 41.7452 17.919 42.6371 17.919 43.7074C17.919 44.8966 18.6263 45.9075 19.6283 46.3832C19.2747 46.8589 19.0978 47.4535 19.0978 48.1075C19.0978 49.3562 19.8641 50.4265 20.984 50.8428C20.6893 51.3185 20.4535 51.8536 20.4535 52.4482C20.4535 54.0537 21.7503 55.3618 23.3418 55.3618H24.3438C23.9902 55.8375 23.8133 56.4321 23.8133 57.0862C23.8133 58.6916 25.1101 59.9998 26.7016 59.9998H31.2992C32.8906 59.9998 34.1874 58.6916 34.1874 57.0862C34.1874 56.4321 33.9516 55.897 33.6569 55.3618H34.659C36.2504 55.3618 37.5472 54.0537 37.5472 52.4482C37.5472 51.8536 37.3704 51.259 37.0167 50.8428C38.1366 50.4265 38.9029 49.3562 38.9029 48.1075C38.9029 47.4535 38.6671 46.8589 38.3724 46.3832C39.3744 45.9075 40.0818 44.8966 40.0818 43.7074C40.0818 42.6371 39.4923 41.7452 38.6671 41.2101L40.5533 35.6802C45.4456 31.9936 48.3928 26.1069 48.3928 19.9824C48.3928 9.21993 39.7281 0.419678 29.0004 0.419678ZM31.2992 58.4538H26.7016C25.9353 58.4538 25.2869 57.7997 25.2869 57.0267C25.2869 56.2537 25.9353 55.5997 26.7016 55.5997H31.2992C32.0654 55.5997 32.7138 56.2537 32.7138 57.0267C32.7138 57.7997 32.0654 58.4538 31.2992 58.4538ZM34.6 53.8158H23.4007C22.6345 53.8158 21.9861 53.1618 21.9861 52.3888C21.9861 51.6158 22.6345 50.9617 23.4007 50.9617H34.659C35.4252 50.9617 36.0736 51.6158 36.0736 52.3888C36.0736 53.1618 35.4252 53.8158 34.6 53.8158ZM36.0147 49.4752H34.6H23.4007H21.9861C21.2198 49.4752 20.5714 48.8211 20.5714 48.0481C20.5714 47.2751 21.2198 46.621 21.9861 46.621H36.0147C36.7809 46.621 37.4293 47.2751 37.4293 48.0481C37.4293 48.8211 36.8399 49.4752 36.0147 49.4752ZM37.1935 45.1345H36.0147H21.9861H20.8072C20.0409 45.1345 19.3926 44.4804 19.3926 43.7074C19.3926 42.9344 20.0409 42.2804 20.8072 42.2804H37.1346C37.9009 42.2804 38.5492 42.9344 38.5492 43.7074C38.6082 44.4804 37.9598 45.1345 37.1935 45.1345ZM39.5513 34.6693C39.4334 34.7288 39.3155 34.9072 39.3155 35.0261L37.2525 40.7938H37.1346H31.1813L32.4191 25.8096C33.1854 26.6421 34.3053 27.1178 35.4842 27.1178C37.8419 27.1178 39.7871 25.1555 39.7871 22.7771C39.7871 20.3986 37.8419 18.377 35.4842 18.377C33.1264 18.377 31.1813 20.3392 31.1813 22.7176C31.1813 22.8365 31.1813 22.9555 31.2402 23.0744C31.2402 23.1339 31.1813 23.1339 31.1813 23.1933L29.7666 40.7344H28.293L26.8784 23.1933C26.8784 23.1339 26.8784 23.1339 26.8195 23.0744C26.8195 22.9555 26.8784 22.8365 26.8784 22.7176C26.8784 20.3392 24.9333 18.377 22.5755 18.377C20.2178 18.377 18.2726 20.3392 18.2726 22.7176C18.2726 25.0961 20.2178 27.0583 22.5755 27.0583C23.7544 27.0583 24.8743 26.5826 25.6406 25.7501L26.8784 40.7344H20.8072H20.7483L18.7442 34.9666C18.6852 34.8477 18.6263 34.7288 18.5084 34.6099C13.8519 31.2206 11.0815 25.6907 11.0815 19.9229C11.0226 9.99293 19.0978 1.84675 29.0004 1.84675C38.9029 1.84675 46.9782 9.99293 46.9782 19.9824C46.9782 25.7501 44.2078 31.28 39.5513 34.6693ZM32.5959 22.7176C32.5959 21.1122 33.8927 19.804 35.4842 19.804C37.0756 19.804 38.3724 21.1122 38.3724 22.7176C38.3724 24.3231 37.0756 25.6312 35.4842 25.6312C33.8927 25.6312 32.5959 24.3231 32.5959 22.7176ZM25.4048 22.7176C25.4048 24.3231 24.108 25.6312 22.5166 25.6312C20.9251 25.6312 19.6283 24.3231 19.6283 22.7176C19.6283 21.1122 20.9251 19.804 22.5166 19.804C24.108 19.804 25.4048 21.1122 25.4048 22.7176Z" fill="black"/>
</svg>
