<svg width="60" height="60" viewBox="0 0 60 60" fill="none" xmlns="http://www.w3.org/2000/svg">
<path d="M30.022 0C13.5099 0 0.30022 8.22 0 18.66C0 18.84 0.0600441 19.02 0.180132 19.2C0.30022 19.32 0.480353 19.44 0.720529 19.44H5.82428V59.28C5.82428 59.7 6.1245 60 6.5448 60H6.60485H53.3191H53.4392C53.8595 60 54.1598 59.7 54.1598 59.28V19.44H59.2635C59.4436 19.44 59.6238 19.38 59.8039 19.2C59.924 19.08 60.0441 18.84 59.984 18.66C59.7439 8.22 46.5342 0 30.022 0ZM52.7187 18.72V54L30.7426 48.48V43.02L33.4445 40.32C34.3452 40.98 35.366 41.34 36.4468 41.34C37.7677 41.34 39.0286 40.86 40.0494 39.84C41.8507 38.04 42.5112 31.68 42.5712 30.96C42.5712 30.72 42.5112 30.54 42.3311 30.36C42.1509 30.18 41.9708 30.12 41.7306 30.12C41.0101 30.18 34.7055 30.78 32.8441 32.64C31.0428 34.44 30.9227 37.26 32.3638 39.24L30.6825 40.92V27.24C31.5231 27.78 32.4838 28.08 33.4445 28.08C34.7655 28.08 36.0264 27.6 37.0472 26.58C38.8485 24.78 39.509 18.42 39.569 17.7C39.569 17.46 39.509 17.28 39.3289 17.1C39.1487 16.92 38.9686 16.86 38.7284 16.86C38.0079 16.92 31.7033 17.52 29.8419 19.38C28.0406 21.18 27.9205 24 29.4216 25.98C29.3616 26.04 29.3015 26.16 29.3015 26.22C29.2415 26.34 29.1814 26.46 29.1814 26.58V40.62L27.1399 38.58C28.0406 37.5 28.5209 36.12 28.5209 34.68C28.5209 33 27.8605 31.44 26.6596 30.24C24.3779 27.96 16.332 27.18 15.4313 27.06C15.1912 27.06 15.011 27.12 14.8309 27.3C14.6508 27.48 14.5907 27.66 14.5907 27.9C14.6508 28.8 15.4313 36.84 17.773 39.18C18.9739 40.38 20.5351 41.04 22.2163 41.04C23.6574 41.04 24.9783 40.56 26.0591 39.66L29.1214 42.72V48.36L7.14524 53.88V18.72C7.14524 18.66 7.14524 18.6 7.14524 18.6C7.14524 18.54 7.14524 18.54 7.14524 18.48C7.50551 11.94 17.4728 6.84 30.022 6.84C42.5712 6.84 52.5386 11.94 52.7187 18.42C52.7187 18.48 52.7187 18.48 52.7787 18.54C52.7187 18.6 52.7187 18.66 52.7187 18.72ZM29.962 23.04C29.962 22.08 30.3223 21.18 31.0428 20.52C32.0035 19.56 35.5461 18.84 38.128 18.54C37.8278 21.06 37.1072 24.6 36.1465 25.62C34.9457 26.82 33.0242 27 31.6432 26.1L35.5461 22.2C35.8463 21.9 35.8463 21.48 35.5461 21.18C35.2459 20.88 34.8256 20.88 34.5253 21.18L30.6225 25.08C30.1421 24.42 29.962 23.76 29.962 23.04ZM32.9042 36.24C32.9042 35.28 33.2644 34.38 33.9849 33.72C34.9457 32.76 38.4883 32.04 41.0701 31.74C40.7099 34.26 39.9894 37.8 39.0286 38.76C37.8278 39.96 35.9064 40.14 34.5253 39.24L38.4282 35.34C38.7284 35.04 38.7284 34.62 38.4282 34.32C38.128 34.02 37.7077 34.02 37.4075 34.32L33.5046 38.22C33.0843 37.62 32.9042 36.96 32.9042 36.24ZM21.0755 32.52C20.7752 32.22 20.3549 32.22 20.0547 32.52C19.7545 32.82 19.7545 33.24 20.0547 33.54L25.2185 38.7C23.3571 40.02 20.5951 39.9 18.9739 38.22C17.5329 36.78 16.6322 31.5 16.332 28.74C19.094 29.04 24.3779 29.94 25.819 31.38C26.7196 32.28 27.26 33.48 27.26 34.8C27.26 35.82 26.8997 36.84 26.2993 37.62L21.0755 32.52ZM7.38542 58.56V55.5L30.022 49.8L52.6587 55.44V58.5H7.38542V58.56ZM54.1598 18C53.5593 10.8 43.3518 5.4 30.022 5.4C16.7523 5.4 6.48476 10.8 5.88432 18H1.56115C2.46181 8.82 14.951 1.44 30.022 1.44C45.0931 1.44 57.5823 8.76 58.4829 17.94H54.1598V18Z" fill="black"/>
</svg>
